<svg width="900" height="200" viewBox="0 0 900 200" xmlns="http://www.w3.org/2000/svg">
  <defs>
    <linearGradient id="stbg" x1="0%" y1="0%" x2="100%" y2="100%">
      <stop offset="0%" stop-color="#0a0010"/>
      <stop offset="100%" stop-color="#1a0040"/>
    </linearGradient>
    <linearGradient id="stcard" x1="0%" y1="0%" x2="0%" y2="100%">
      <stop offset="0%" stop-color="#140030"/>
      <stop offset="100%" stop-color="#0a001a"/>
    </linearGradient>
    <linearGradient id="bar1" x1="0%" y1="0%" x2="100%" y2="0%">
      <stop offset="0%" stop-color="#2d0070"/>
      <stop offset="100%" stop-color="#fbbf24"/>
    </linearGradient>
    <linearGradient id="bar2" x1="0%" y1="0%" x2="100%" y2="0%">
      <stop offset="0%" stop-color="#2d0070"/>
      <stop offset="100%" stop-color="#c084fc"/>
    </linearGradient>
    <filter id="stg" x="-20%" y="-50%" width="140%" height="200%">
      <feGaussianBlur stdDeviation="3" result="b"/>
      <feMerge><feMergeNode in="b"/><feMergeNode in="SourceGraphic"/></feMerge>
    </filter>
    <style>
      @keyframes stb{0%,100%{opacity:0.4;stroke:#c084fc}50%{opacity:0.9;stroke:#fbbf24}}
      @keyframes stb2{0%,100%{opacity:0.9;stroke:#fbbf24}50%{opacity:0.4;stroke:#c084fc}}
      @keyframes stpulse{0%,100%{opacity:0.7}50%{opacity:1}}
      @keyframes grow1{0%{width:0}100%{width:180px}}
      @keyframes grow2{0%{width:0}100%{width:120px}}
      @keyframes grow3{0%{width:0}100%{width:200px}}
      @keyframes grow4{0%{width:0}100%{width:90px}}
      .stb1{animation:stb  3s ease-in-out infinite}
      .stb2{animation:stb2 3s ease-in-out infinite}
      .stl{animation:stpulse 2.5s ease-in-out infinite}
      .bar1{animation:grow1 1.5s ease-out forwards}
      .bar2{animation:grow2 1.5s ease-out 0.2s forwards;width:0}
      .bar3{animation:grow3 1.5s ease-out 0.4s forwards;width:0}
      .bar4{animation:grow4 1.5s ease-out 0.6s forwards;width:0}
    </style>
  </defs>

  <rect width="900" height="200" fill="url(#stbg)"/>

  <!-- Card 1: Overview -->
  <rect x="12" y="12" width="420" height="176" rx="10" fill="url(#stcard)"/>
  <rect class="stb1" x="12" y="12" width="420" height="176" rx="10" fill="none" stroke="#c084fc" stroke-width="1.5"/>

  <text class="stl" x="30" y="42" font-family="'Segoe UI',Arial,sans-serif" font-size="13" font-weight="700" fill="#fbbf24" filter="url(#stg)">📊 Overview</text>
  <text x="400" y="42" font-family="'Segoe UI',Arial,sans-serif" font-size="10" fill="#555" text-anchor="end">hydra-algaib</text>

  <!-- Stat rows -->
  <text x="30" y="72" font-family="'Segoe UI',Arial,sans-serif" font-size="11" fill="#aaa">Total Commits (2026)</text>
  <rect class="bar1" x="220" y="60" height="14" rx="3" fill="url(#bar1)"/>
  <text x="408" y="72" font-family="'Segoe UI',Arial,sans-serif" font-size="11" fill="#fbbf24" text-anchor="end" font-weight="700">25+</text>

  <text x="30" y="102" font-family="'Segoe UI',Arial,sans-serif" font-size="11" fill="#aaa">Private Repos</text>
  <rect class="bar2" x="220" y="90" height="14" rx="3" fill="url(#bar2)"/>
  <text x="408" y="102" font-family="'Segoe UI',Arial,sans-serif" font-size="11" fill="#c084fc" text-anchor="end" font-weight="700">3+</text>

  <text x="30" y="132" font-family="'Segoe UI',Arial,sans-serif" font-size="11" fill="#aaa">Lines of Code</text>
  <rect class="bar3" x="220" y="120" height="14" rx="3" fill="url(#bar1)"/>
  <text x="408" y="132" font-family="'Segoe UI',Arial,sans-serif" font-size="11" fill="#fbbf24" text-anchor="end" font-weight="700">10k+</text>

  <text x="30" y="162" font-family="'Segoe UI',Arial,sans-serif" font-size="11" fill="#aaa">Languages</text>
  <rect class="bar4" x="220" y="150" height="14" rx="3" fill="url(#bar2)"/>
  <text x="408" y="162" font-family="'Segoe UI',Arial,sans-serif" font-size="11" fill="#c084fc" text-anchor="end" font-weight="700">JS · TS · Py</text>

  <line x1="30" y1="180" x2="420" y2="180" stroke="#2d0070" stroke-width="0.8"/>
  <text x="30" y="192" font-family="'Segoe UI',Arial,sans-serif" font-size="9" fill="#555">All work in private repos · Stats are approximate</text>

  <!-- Card 2: Activity Heatmap simplified -->
  <rect x="462" y="12" width="426" height="176" rx="10" fill="url(#stcard)"/>
  <rect class="stb2" x="462" y="12" width="426" height="176" rx="10" fill="none" stroke="#fbbf24" stroke-width="1.5"/>

  <text class="stl" x="480" y="42" font-family="'Segoe UI',Arial,sans-serif" font-size="13" font-weight="700" fill="#fbbf24" filter="url(#stg)">📅 2026 Activity</text>

  <!-- Mini heatmap grid: 12 cols x 4 rows = weeks x days -->
  <text x="480" y="68" font-family="'Segoe UI',Arial,sans-serif" font-size="9" fill="#555">Jan</text>
  <text x="526" y="68" font-family="'Segoe UI',Arial,sans-serif" font-size="9" fill="#555">Feb</text>
  <text x="572" y="68" font-family="'Segoe UI',Arial,sans-serif" font-size="9" fill="#555">Mar</text>
  <text x="618" y="68" font-family="'Segoe UI',Arial,sans-serif" font-size="9" fill="#555">Apr</text>
  <text x="664" y="68" font-family="'Segoe UI',Arial,sans-serif" font-size="9" fill="#555">May</text>
  <text x="710" y="68" font-family="'Segoe UI',Arial,sans-serif" font-size="9" fill="#555">Jun</text>

  <!-- Heatmap cells: rows=days, cols=weeks. Jun 18 spike -->
  <!-- Jan-May: sparse activity -->
  <!-- Each cell: 10x10, gap 2 -->
  <!-- 6 months * ~4 weeks = 24 cols, 5 day rows -->
  <!-- I'll do a simplified 3-row version with varying opacity -->

  <!-- Month blocks: Jan(col 0-3), Feb(4-7), Mar(8-11), Apr(12-15), May(16-19), Jun(20-23) -->
  <!-- Using rects with varying fill to simulate heatmap -->

  <!-- Generate rows programmatically with varying intensities -->
  <!-- Row y positions: 74, 88, 102, 116, 130 -->

  <!-- Jan: low -->
  <rect x="480" y="74" width="10" height="10" rx="2" fill="#1a0040" opacity="0.4"/>
  <rect x="480" y="88" width="10" height="10" rx="2" fill="#1a0040" opacity="0.2"/>
  <rect x="480" y="102" width="10" height="10" rx="2" fill="#2d0070" opacity="0.5"/>
  <rect x="480" y="116" width="10" height="10" rx="2" fill="#1a0040" opacity="0.3"/>

  <rect x="494" y="74" width="10" height="10" rx="2" fill="#1a0040" opacity="0.3"/>
  <rect x="494" y="88" width="10" height="10" rx="2" fill="#2d0070" opacity="0.4"/>
  <rect x="494" y="102" width="10" height="10" rx="2" fill="#1a0040" opacity="0.2"/>
  <rect x="494" y="116" width="10" height="10" rx="2" fill="#1a0040" opacity="0.4"/>

  <rect x="508" y="74" width="10" height="10" rx="2" fill="#2d0070" opacity="0.5"/>
  <rect x="508" y="88" width="10" height="10" rx="2" fill="#1a0040" opacity="0.3"/>
  <rect x="508" y="102" width="10" height="10" rx="2" fill="#1a0040" opacity="0.2"/>
  <rect x="508" y="116" width="10" height="10" rx="2" fill="#2d0070" opacity="0.4"/>

  <rect x="522" y="74" width="10" height="10" rx="2" fill="#1a0040" opacity="0.2"/>
  <rect x="522" y="88" width="10" height="10" rx="2" fill="#1a0040" opacity="0.4"/>
  <rect x="522" y="102" width="10" height="10" rx="2" fill="#2d0070" opacity="0.3"/>
  <rect x="522" y="116" width="10" height="10" rx="2" fill="#1a0040" opacity="0.2"/>

  <!-- Feb -->
  <rect x="538" y="74" width="10" height="10" rx="2" fill="#1a0040" opacity="0.3"/>
  <rect x="538" y="88" width="10" height="10" rx="2" fill="#2d0070" opacity="0.5"/>
  <rect x="538" y="102" width="10" height="10" rx="2" fill="#1a0040" opacity="0.3"/>
  <rect x="538" y="116" width="10" height="10" rx="2" fill="#1a0040" opacity="0.2"/>

  <rect x="552" y="74" width="10" height="10" rx="2" fill="#2d0070" opacity="0.6"/>
  <rect x="552" y="88" width="10" height="10" rx="2" fill="#1a0040" opacity="0.3"/>
  <rect x="552" y="102" width="10" height="10" rx="2" fill="#2d0070" opacity="0.4"/>
  <rect x="552" y="116" width="10" height="10" rx="2" fill="#1a0040" opacity="0.2"/>

  <rect x="566" y="74" width="10" height="10" rx="2" fill="#1a0040" opacity="0.2"/>
  <rect x="566" y="88" width="10" height="10" rx="2" fill="#1a0040" opacity="0.4"/>
  <rect x="566" y="102" width="10" height="10" rx="2" fill="#1a0040" opacity="0.3"/>
  <rect x="566" y="116" width="10" height="10" rx="2" fill="#2d0070" opacity="0.5"/>

  <rect x="580" y="74" width="10" height="10" rx="2" fill="#2d0070" opacity="0.4"/>
  <rect x="580" y="88" width="10" height="10" rx="2" fill="#1a0040" opacity="0.2"/>
  <rect x="580" y="102" width="10" height="10" rx="2" fill="#1a0040" opacity="0.3"/>
  <rect x="580" y="116" width="10" height="10" rx="2" fill="#2d0070" opacity="0.4"/>

  <!-- Mar-Apr: medium -->
  <rect x="594" y="74" width="10" height="10" rx="2" fill="#2d0070" opacity="0.7"/>
  <rect x="594" y="88" width="10" height="10" rx="2" fill="#4a0090" opacity="0.6"/>
  <rect x="594" y="102" width="10" height="10" rx="2" fill="#2d0070" opacity="0.5"/>
  <rect x="594" y="116" width="10" height="10" rx="2" fill="#1a0040" opacity="0.4"/>

  <rect x="608" y="74" width="10" height="10" rx="2" fill="#1a0040" opacity="0.3"/>
  <rect x="608" y="88" width="10" height="10" rx="2" fill="#2d0070" opacity="0.7"/>
  <rect x="608" y="102" width="10" height="10" rx="2" fill="#4a0090" opacity="0.6"/>
  <rect x="608" y="116" width="10" height="10" rx="2" fill="#2d0070" opacity="0.5"/>

  <rect x="622" y="74" width="10" height="10" rx="2" fill="#4a0090" opacity="0.7"/>
  <rect x="622" y="88" width="10" height="10" rx="2" fill="#2d0070" opacity="0.5"/>
  <rect x="622" y="102" width="10" height="10" rx="2" fill="#1a0040" opacity="0.4"/>
  <rect x="622" y="116" width="10" height="10" rx="2" fill="#2d0070" opacity="0.6"/>

  <rect x="636" y="74" width="10" height="10" rx="2" fill="#2d0070" opacity="0.6"/>
  <rect x="636" y="88" width="10" height="10" rx="2" fill="#4a0090" opacity="0.7"/>
  <rect x="636" y="102" width="10" height="10" rx="2" fill="#2d0070" opacity="0.5"/>
  <rect x="636" y="116" width="10" height="10" rx="2" fill="#1a0040" opacity="0.4"/>

  <!-- May -->
  <rect x="650" y="74" width="10" height="10" rx="2" fill="#4a0090" opacity="0.8"/>
  <rect x="650" y="88" width="10" height="10" rx="2" fill="#2d0070" opacity="0.6"/>
  <rect x="650" y="102" width="10" height="10" rx="2" fill="#4a0090" opacity="0.7"/>
  <rect x="650" y="116" width="10" height="10" rx="2" fill="#2d0070" opacity="0.5"/>

  <rect x="664" y="74" width="10" height="10" rx="2" fill="#2d0070" opacity="0.5"/>
  <rect x="664" y="88" width="10" height="10" rx="2" fill="#6030a0" opacity="0.7"/>
  <rect x="664" y="102" width="10" height="10" rx="2" fill="#2d0070" opacity="0.6"/>
  <rect x="664" y="116" width="10" height="10" rx="2" fill="#4a0090" opacity="0.7"/>

  <rect x="678" y="74" width="10" height="10" rx="2" fill="#4a0090" opacity="0.7"/>
  <rect x="678" y="88" width="10" height="10" rx="2" fill="#2d0070" opacity="0.5"/>
  <rect x="678" y="102" width="10" height="10" rx="2" fill="#6030a0" opacity="0.7"/>
  <rect x="678" y="116" width="10" height="10" rx="2" fill="#2d0070" opacity="0.6"/>

  <rect x="692" y="74" width="10" height="10" rx="2" fill="#2d0070" opacity="0.6"/>
  <rect x="692" y="88" width="10" height="10" rx="2" fill="#4a0090" opacity="0.7"/>
  <rect x="692" y="102" width="10" height="10" rx="2" fill="#2d0070" opacity="0.5"/>
  <rect x="692" y="116" width="10" height="10" rx="2" fill="#6030a0" opacity="0.7"/>

  <!-- Jun: SPIKE on week 3 (Jun 18) — full gold -->
  <rect x="706" y="74" width="10" height="10" rx="2" fill="#2d0070" opacity="0.5"/>
  <rect x="706" y="88" width="10" height="10" rx="2" fill="#4a0090" opacity="0.6"/>
  <rect x="706" y="102" width="10" height="10" rx="2" fill="#2d0070" opacity="0.4"/>
  <rect x="706" y="116" width="10" height="10" rx="2" fill="#2d0070" opacity="0.5"/>

  <rect x="720" y="74" width="10" height="10" rx="2" fill="#6030a0" opacity="0.7"/>
  <rect x="720" y="88" width="10" height="10" rx="2" fill="#2d0070" opacity="0.5"/>
  <rect x="720" y="102" width="10" height="10" rx="2" fill="#4a0090" opacity="0.6"/>
  <rect x="720" y="116" width="10" height="10" rx="2" fill="#2d0070" opacity="0.5"/>

  <!-- Jun 18 SPIKE column — gold -->
  <rect x="734" y="74" width="10" height="10" rx="2" fill="#fbbf24" opacity="0.95"/>
  <rect x="734" y="88" width="10" height="10" rx="2" fill="#fbbf24" opacity="1"/>
  <rect x="734" y="102" width="10" height="10" rx="2" fill="#fbbf24" opacity="1"/>
  <rect x="734" y="116" width="10" height="10" rx="2" fill="#f59e0b" opacity="0.9"/>

  <rect x="748" y="74" width="10" height="10" rx="2" fill="#c084fc" opacity="0.8"/>
  <rect x="748" y="88" width="10" height="10" rx="2" fill="#fbbf24" opacity="0.9"/>
  <rect x="748" y="102" width="10" height="10" rx="2" fill="#c084fc" opacity="0.7"/>
  <rect x="748" y="116" width="10" height="10" rx="2" fill="#fbbf24" opacity="0.8"/>

  <!-- Spike label -->
  <line x1="739" y1="132" x2="739" y2="148" stroke="#fbbf24" stroke-width="1" opacity="0.7" stroke-dasharray="2 2"/>
  <text x="739" y="160" font-family="'Segoe UI',Arial,sans-serif" font-size="9" fill="#fbbf24" text-anchor="middle">Jun 18</text>
  <text x="739" y="172" font-family="'Segoe UI',Arial,sans-serif" font-size="9" fill="#fbbf24" text-anchor="middle">🚀 launch</text>

  <!-- Legend -->
  <text x="480" y="192" font-family="'Segoe UI',Arial,sans-serif" font-size="9" fill="#555">Less</text>
  <rect x="506" y="183" width="8" height="8" rx="1" fill="#1a0040" opacity="0.5"/>
  <rect x="517" y="183" width="8" height="8" rx="1" fill="#2d0070" opacity="0.7"/>
  <rect x="528" y="183" width="8" height="8" rx="1" fill="#4a0090"/>
  <rect x="539" y="183" width="8" height="8" rx="1" fill="#c084fc"/>
  <rect x="550" y="183" width="8" height="8" rx="1" fill="#fbbf24"/>
  <text x="562" y="192" font-family="'Segoe UI',Arial,sans-serif" font-size="9" fill="#555">More</text>
</svg>
